<svg xmlns="http://www.w3.org/2000/svg" style="display: none;">
    <symbol id="blinds" viewBox="0 0 25 21" fill="none">
        <rect x="0.5" y="0.5" width="24" height="2" stroke="#417A82"/>
        <rect x="2.5" y="5.5" width="20" height="3" stroke="#417A82"/>
        <rect x="2.5" y="8.5" width="20" height="3" stroke="#417A82"/>
        <rect x="2.5" y="11.5" width="20" height="3" stroke="#417A82"/>
        <rect x="2.5" y="14.5" width="20" height="3" stroke="#417A82"/>
        <rect x="2.5" y="17.5" width="20" height="3" stroke="#417A82"/>
        <path d="M4.5 2L4.5 6" stroke="#417A82"/>
        <line x1="4.5" y1="6" x2="4.5" y2="7" stroke="#417A82"/>
        <line x1="4.5" y1="9" x2="4.5" y2="10" stroke="#417A82"/>
        <line x1="4.5" y1="11.0454" x2="4.5" y2="11.7992" stroke="#417A82"/>
        <line x1="4.5" y1="14.0601" x2="4.5" y2="14.8138" stroke="#417A82"/>
        <line x1="4.5" y1="18" x2="4.5" y2="19" stroke="#417A82"/>
        <line x1="4.5" y1="15" x2="4.5" y2="16" stroke="#417A82"/>
        <line x1="4.5" y1="12" x2="4.5" y2="13" stroke="#417A82"/>
        <path d="M20.4998 2L20.4998 5.5" stroke="#417A82"/>
        <line x1="20.4998" y1="6" x2="20.4998" y2="7" stroke="#417A82"/>
        <line x1="20.4998" y1="9" x2="20.4998" y2="10" stroke="#417A82"/>
        <line x1="20.4998" y1="18" x2="20.4998" y2="19" stroke="#417A82"/>
        <line x1="20.4998" y1="15" x2="20.4998" y2="16" stroke="#417A82"/>
        <line x1="20.4998" y1="12" x2="20.4998" y2="13" stroke="#417A82"/>
    </symbol>

    <symbol id="roll" viewBox="0 0 23 26" fill="none">
        <rect x="0.500366" y="0.5" width="22" height="4" rx="2" stroke="#417A82"/>
        <circle cx="2.50037" cy="2.5" r="2" stroke="#417A82"/>
        <path fill-rule="evenodd" clip-rule="evenodd"
              d="M0.20907 2.5H0V23.5V24H0.5H20.5H21V23.5V4.5H20V23H1V3.15423C0.666262 3.03512 0.386854 2.80124 0.20907 2.5Z"
              fill="#417A82"/>
        <line x1="10.5" y1="24" x2="10.5" y2="26" stroke="#417A82"/>
        <line x1="1" y1="20.5" x2="20.598" y2="20.5" stroke="#417A82"/>
    </symbol>

    <symbol id="mosquito" viewBox="0 0 21 24" fill="none">
        <rect x="0.5" y="0.5" width="20" height="23" stroke="#417A82"/>
        <rect x="2.5" y="2.5" width="16" height="19" stroke="#417A82"/>
        <line x1="5.5" y1="7" x2="5.5" y2="18" stroke="#417A82"/>
        <line x1="14.5" y1="7" x2="14.5" y2="18" stroke="#417A82"/>
        <line x1="4" y1="11.5" x2="2" y2="11.5" stroke="#417A82"/>
        <line x1="4" y1="8.5" x2="2" y2="8.5" stroke="#417A82"/>
        <line x1="18" y1="8.5" x2="15" y2="8.5" stroke="#417A82"/>
        <line x1="18" y1="11.5" x2="15" y2="11.5" stroke="#417A82"/>
        <line x1="8.5" y1="3" x2="8.5" y2="11" stroke="#417A82"/>
        <line x1="11.5" y1="3" x2="11.5" y2="18" stroke="#417A82"/>
        <line x1="8.5" y1="13" x2="8.5" y2="20" stroke="#417A82"/>
    </symbol>

    <symbol id="plisse" viewBox="0 0 25 22" fill="none">
        <path fill-rule="evenodd" clip-rule="evenodd"
              d="M22.0002 5.5L23.0603 2H1.95477L3.00018 5.5L2.00018 8.5L3.00018 11.5L2.00018 14.5L3.00018 17.5L1.95477 21.0754H23.0603L22.0002 17.5L23.0002 14.5L22.0002 11.5L23.0002 8.5L22.0002 5.5ZM21.9461 8.5L20.9509 5.5145L21.7125 3H3.29712L4.04877 5.51652L3.05428 8.5L4.05428 11.5L3.05428 14.5L4.04776 17.4805L3.28903 20.0754H21.7208L20.9519 17.4824L21.9461 14.5L20.9461 11.5L21.9461 8.5Z"
              fill="#417A82"/>
        <path fill-rule="evenodd" clip-rule="evenodd" d="M24 1H1V2H24V1ZM0 0V3H25V0H0Z" fill="#417A82"/>
        <path fill-rule="evenodd" clip-rule="evenodd" d="M21.5 6L3 6L3 5L21.5 5L21.5 6Z" fill="#417A82"/>
        <path fill-rule="evenodd" clip-rule="evenodd" d="M21.5 12L3.5 12L3.5 11L21.5 11L21.5 12Z" fill="#417A82"/>
        <path fill-rule="evenodd" clip-rule="evenodd" d="M22.3065 15L2.7085 15L2.7085 14L22.3065 14L22.3065 15Z"
              fill="#417A82"/>
        <path fill-rule="evenodd" clip-rule="evenodd"
              d="M22.3065 21.0752L2.70856 21.0752L2.70856 20.0752L22.3065 20.0752L22.3065 21.0752Z" fill="#417A82"/>
        <path fill-rule="evenodd" clip-rule="evenodd" d="M22.598 9L3 9L3 8L22.598 8V9Z" fill="#417A82"/>
        <path fill-rule="evenodd" clip-rule="evenodd" d="M21.5 18L3.5 18L3.5 17L21.5 17V18Z" fill="#417A82"/>
    </symbol>

    <symbol id="electrician" viewBox="0 0 25 26" fill="none">
        <path fill-rule="evenodd" clip-rule="evenodd"
              d="M4.69718 17.0249H2.98123C2.56995 17.0249 2.22559 17.3365 2.18467 17.7458L1.7798 21.7945C1.65796 23.0129 2.61474 24.0701 3.83921 24.0701C5.06368 24.0701 6.02046 23.0129 5.89862 21.7945L5.49374 17.7458C5.45282 17.3365 5.10846 17.0249 4.69718 17.0249ZM2.98123 16.0249C2.0562 16.0249 1.28168 16.7258 1.18963 17.6463L0.784759 21.695C0.604052 23.5021 2.02312 25.0701 3.83921 25.0701C5.6553 25.0701 7.07436 23.5021 6.89365 21.695L6.48878 17.6463C6.39674 16.7258 5.62221 16.0249 4.69718 16.0249H2.98123Z"
              fill="#417A82"/>
        <path d="M4.96986 19.4173C4.96986 20.0417 4.46365 20.5479 3.83921 20.5479C3.21477 20.5479 2.70856 20.0417 2.70856 19.4173C2.70856 18.7928 3.21477 18.2866 3.83921 18.2866C4.46365 18.2866 4.96986 18.7928 4.96986 19.4173Z"
              fill="#417A82"/>
        <path fill-rule="evenodd" clip-rule="evenodd" d="M24 1H1V2H24V1ZM0 0V3H25V0H0Z" fill="#417A82"/>
        <path fill-rule="evenodd" clip-rule="evenodd" d="M22.0151 22L22.0151 3L23.0151 3L23.0151 22L22.0151 22Z"
              fill="#417A82"/>
        <path fill-rule="evenodd" clip-rule="evenodd" d="M17.0302 20L17.0302 5L18.0302 5L18.0302 20L17.0302 20Z"
              fill="#417A82"/>
        <path fill-rule="evenodd" clip-rule="evenodd" d="M14 20.0754L14 5L15 5L15 20.0754L14 20.0754Z" fill="#417A82"/>
        <path fill-rule="evenodd" clip-rule="evenodd" d="M11 20.0754L11 5L12 5L12 20.0754L11 20.0754Z" fill="#417A82"/>
        <path fill-rule="evenodd" clip-rule="evenodd" d="M8 19.0402L8 5L9 5L9 19.0402L8 19.0402Z" fill="#417A82"/>
        <path fill-rule="evenodd" clip-rule="evenodd" d="M5 15L5 5L6 5L6 15L5 15Z" fill="#417A82"/>
        <path fill-rule="evenodd" clip-rule="evenodd"
              d="M2.00012 4H20.9221V22H8.00012V21H19.9221V5H3.00012V14.9221H2.00012V4Z" fill="#417A82"/>
    </symbol>

    <symbol id="external" viewBox="0 0 25 23" fill="none">
        <path fill-rule="evenodd" clip-rule="evenodd" d="M24 21H1V22H24V21ZM0 20V23H25V20H0Z" fill="#417A82"/>
        <path fill-rule="evenodd" clip-rule="evenodd" d="M22 19H3V20H22V19ZM2 18V21H23V18H2Z" fill="#417A82"/>
        <path fill-rule="evenodd" clip-rule="evenodd"
              d="M13.4523 6.70173H11.5477C11.5457 6.70105 11.5457 6.701 11.5458 6.70096L11.5464 6.69898L11.547 6.69709C11.5472 6.69639 11.5473 6.69598 11.5474 6.69585L11.545 6.703C11.5419 6.71193 11.5359 6.72886 11.5269 6.75264C11.5088 6.80039 11.4788 6.87454 11.4358 6.96619C11.3488 7.152 11.2148 7.39575 11.0284 7.63436C10.6579 8.10862 10.1388 8.5 9.375 8.5C8.61124 8.5 8.09214 8.10862 7.72162 7.63436C7.53521 7.39575 7.40125 7.152 7.31415 6.96619C7.27119 6.87454 7.24121 6.80039 7.2231 6.75264C7.21407 6.72886 7.2081 6.71193 7.20503 6.703L7.20261 6.69584C7.20265 6.69595 7.20278 6.69636 7.20302 6.69709L7.20362 6.69898L7.20402 6.70024C7.20403 6.70029 7.20427 6.70105 7.20229 6.70173H5.29771C5.29573 6.70105 5.29575 6.701 5.29576 6.70096L5.29638 6.69898L5.29698 6.69709C5.29722 6.69636 5.29735 6.69595 5.29739 6.69584L5.29497 6.703C5.2919 6.71193 5.28593 6.72886 5.2769 6.75264C5.25879 6.80039 5.22881 6.87454 5.18585 6.96619C5.09875 7.152 4.96479 7.39575 4.77838 7.63436C4.40786 8.10862 3.88876 8.5 3.125 8.5C2.30315 8.5 1.7749 8.13377 1.42636 7.74711C1.27961 7.58432 1.16761 7.41972 1.08704 7.28257L2.693 3H22.307L23.913 7.28257C23.8324 7.41972 23.7204 7.58432 23.5736 7.74711C23.2251 8.13377 22.6968 8.5 21.875 8.5C21.1112 8.5 20.5921 8.10862 20.2216 7.63436C20.0352 7.39575 19.9012 7.152 19.8141 6.96619C19.7712 6.87454 19.7412 6.80039 19.7231 6.75264C19.7141 6.72886 19.7081 6.71193 19.705 6.703L19.703 6.69709L19.704 6.70024C19.704 6.70029 19.7043 6.70105 19.7023 6.70173H17.7977C17.7957 6.70105 17.7957 6.701 17.7958 6.70096L17.797 6.69709L17.795 6.703C17.7919 6.71193 17.7859 6.72886 17.7769 6.75264C17.7588 6.80039 17.7288 6.87454 17.6859 6.96619C17.5988 7.152 17.4648 7.39575 17.2784 7.63436C16.9079 8.10862 16.3888 8.5 15.625 8.5C14.8612 8.5 14.3421 8.10862 13.9716 7.63436C13.7852 7.39575 13.6512 7.152 13.5642 6.96619C13.5212 6.87454 13.4912 6.80039 13.4731 6.75264C13.4641 6.72886 13.4581 6.71193 13.455 6.703L13.4526 6.69583C13.4526 6.6957 13.4527 6.69611 13.453 6.69709L13.4536 6.69898L13.454 6.70024C13.454 6.70029 13.4543 6.70105 13.4523 6.70173ZM18.1603 8.12497C18.5799 7.54431 18.75 7 18.75 7C18.75 7 18.9201 7.54431 19.3397 8.12497C19.8193 8.78873 20.6249 9.5 21.875 9.5C24.2188 9.5 25 7.33333 25 7.33333L23 2H2L0 7.33333C0 7.33333 0.78125 9.5 3.125 9.5C4.37514 9.5 5.18073 8.78873 5.66034 8.12497C6.0799 7.54431 6.25 7 6.25 7C6.25 7 6.4201 7.54431 6.83966 8.12497C7.31927 8.78873 8.12486 9.5 9.375 9.5C10.6251 9.5 11.4307 8.78873 11.9103 8.12497C12.3299 7.54431 12.5 7 12.5 7C12.5 7 12.6701 7.54431 13.0897 8.12497C13.5693 8.78873 14.3749 9.5 15.625 9.5C16.8751 9.5 17.6807 8.78873 18.1603 8.12497Z"
              fill="#417A82"/>
        <path fill-rule="evenodd" clip-rule="evenodd" d="M2 18L2 9L3 9L3 18L2 18Z" fill="#417A82"/>
        <path fill-rule="evenodd" clip-rule="evenodd" d="M22 18L22 9L23 9L23 18L22 18Z" fill="#417A82"/>
        <path fill-rule="evenodd" clip-rule="evenodd" d="M22 1H3V2H22V1ZM2 0V3H23V0H2Z" fill="#417A82"/>
        <path fill-rule="evenodd" clip-rule="evenodd" d="M24 7L1 7L1 6L24 6L24 7Z" fill="#417A82"/>
    </symbol>

    <symbol id="photo-printing" viewBox="0 0 25 23" fill="none">
        <path fill-rule="evenodd" clip-rule="evenodd" d="M24 1H1V2H24V1ZM0 0V3H25V0H0Z" fill="#417A82"/>
        <path fill-rule="evenodd" clip-rule="evenodd" d="M22 3H3V22H22V3ZM2 23V2H23V23H2Z" fill="#417A82"/>
        <path fill-rule="evenodd" clip-rule="evenodd"
              d="M3.00006 12.7987C3.03637 12.7837 3.0725 12.7678 3.10841 12.751C3.46452 12.5851 3.79624 12.3381 4.08108 12.0176C4.36612 11.6969 4.59755 11.3101 4.75717 10.8766C4.9168 10.443 5.00006 9.97494 5.00006 9.5C5.00006 9.02506 4.9168 8.557 4.75717 8.12344C4.59755 7.68992 4.36612 7.30305 4.08108 6.98238C3.79624 6.66194 3.46452 6.4149 3.10841 6.24896C3.0725 6.23222 3.03637 6.21633 3.00006 6.20128V12.7987ZM3.00006 13.8571C3.1805 13.8047 3.35786 13.738 3.53079 13.6575C4.0161 13.4313 4.45705 13.0998 4.82849 12.682C5.19992 12.2641 5.49456 11.768 5.69558 11.2221C5.8966 10.6761 6.00006 10.0909 6.00006 9.5C6.00006 8.90905 5.8966 8.32389 5.69558 7.77792C5.49456 7.23196 5.19992 6.73588 4.82849 6.31802C4.45705 5.90016 4.0161 5.56869 3.53079 5.34254C3.35786 5.26196 3.1805 5.19531 3.00006 5.14289C2.67414 5.04822 2.33817 5 2.00006 5V14C2.33817 14 2.67414 13.9518 3.00006 13.8571Z"
              fill="#417A82"/>
        <path fill-rule="evenodd" clip-rule="evenodd"
              d="M19.7988 22C19.7837 21.9637 19.7678 21.9276 19.7511 21.8916C19.5852 21.5355 19.3381 21.2038 19.0177 20.919C18.697 20.6339 18.3101 20.4025 17.8766 20.2429C17.4431 20.0833 16.975 20 16.5001 20C16.0251 20 15.5571 20.0833 15.1235 20.2429C14.69 20.4025 14.3031 20.6339 13.9824 20.919C13.662 21.2038 13.415 21.5355 13.249 21.8916C13.2323 21.9276 13.2164 21.9637 13.2013 22L19.7988 22ZM20.8572 22C20.8048 21.8196 20.7381 21.6422 20.6575 21.4693C20.4314 20.984 20.0999 20.543 19.682 20.1716C19.2642 19.8001 18.7681 19.5055 18.2221 19.3045C17.6762 19.1035 17.091 19 16.5001 19C15.9091 19 15.324 19.1035 14.778 19.3045C14.232 19.5055 13.7359 19.8001 13.3181 20.1716C12.9002 20.543 12.5687 20.984 12.3426 21.4693C12.262 21.6422 12.1954 21.8196 12.143 22C12.0483 22.3259 12.0001 22.6619 12.0001 23L21.0001 23C21.0001 22.6619 20.9518 22.3259 20.8572 22Z"
              fill="#417A82"/>
        <path fill-rule="evenodd" clip-rule="evenodd"
              d="M18.5001 8C19.3285 8 20.0001 7.32843 20.0001 6.5C20.0001 5.67157 19.3285 5 18.5001 5C17.6716 5 17.0001 5.67157 17.0001 6.5C17.0001 7.32843 17.6716 8 18.5001 8ZM18.5001 9C19.8808 9 21.0001 7.88071 21.0001 6.5C21.0001 5.11929 19.8808 4 18.5001 4C17.1193 4 16.0001 5.11929 16.0001 6.5C16.0001 7.88071 17.1193 9 18.5001 9Z"
              fill="#417A82"/>
        <path fill-rule="evenodd" clip-rule="evenodd"
              d="M6.50006 20C7.32849 20 8.00006 19.3284 8.00006 18.5C8.00006 17.6716 7.32849 17 6.50006 17C5.67163 17 5.00006 17.6716 5.00006 18.5C5.00006 19.3284 5.67163 20 6.50006 20ZM6.50006 21C7.88077 21 9.00006 19.8807 9.00006 18.5C9.00006 17.1193 7.88077 16 6.50006 16C5.11935 16 4.00006 17.1193 4.00006 18.5C4.00006 19.8807 5.11935 21 6.50006 21Z"
              fill="#417A82"/>
        <path fill-rule="evenodd" clip-rule="evenodd"
              d="M14.5001 16C15.8808 16 17.0001 14.8807 17.0001 13.5C17.0001 12.1193 15.8808 11 14.5001 11C13.1193 11 12.0001 12.1193 12.0001 13.5C12.0001 14.8807 13.1193 16 14.5001 16ZM14.5001 17C16.4331 17 18.0001 15.433 18.0001 13.5C18.0001 11.567 16.4331 10 14.5001 10C12.5671 10 11.0001 11.567 11.0001 13.5C11.0001 15.433 12.5671 17 14.5001 17Z"
              fill="#417A82"/>
        <path fill-rule="evenodd" clip-rule="evenodd" d="M10.0001 22L10.0001 3L11.0001 3L11.0001 22L10.0001 22Z"
              fill="#417A82"/>
        <path fill-rule="evenodd" clip-rule="evenodd" d="M14.0001 22L14.0001 3H15.0001L15.0001 22H14.0001Z"
              fill="#417A82"/>
        <path fill-rule="evenodd" clip-rule="evenodd" d="M18.0001 22L18.0001 3L19.0001 3L19.0001 22L18.0001 22Z"
              fill="#417A82"/>
        <path fill-rule="evenodd" clip-rule="evenodd" d="M6.00006 22L6.00006 3H7.00006L7.00006 22H6.00006Z"
              fill="#417A82"/>
    </symbol>

    <symbol id="drill" viewBox="0 0 21 21" fill="none">
        <path fill-rule="evenodd" clip-rule="evenodd"
              d="M8.64295 15.5894L8.37441 16.5485L8.76528 19.6196H16.5012L16.892 16.5485L16.6235 15.5894H8.64295ZM17.382 14.5894H7.88449L7.35685 16.4739L7.88449 20.6196H17.382L17.9096 16.4739L17.382 14.5894Z"
              fill="#417A82"/>
        <path fill-rule="evenodd" clip-rule="evenodd" d="M17.6181 17.5794H7.61809V16.5794H17.6181V17.5794Z"
              fill="#417A82"/>
        <path fill-rule="evenodd" clip-rule="evenodd"
              d="M9.61809 6.83287V15.5794H15.6181V8.03649L9.61809 6.83287ZM10.6181 8.0534V14.5794H14.6181V8.85581L10.6181 8.0534Z"
              fill="#417A82"/>
        <path fill-rule="evenodd" clip-rule="evenodd"
              d="M17.8116 3.17436L7.0366 1.0198C6.49503 0.911506 5.96822 1.26274 5.85993 1.80431L5.2346 4.93159C5.12631 5.47315 5.47755 5.99996 6.01911 6.10826L16.7941 8.26282C18.1993 8.54379 19.5661 7.63248 19.8471 6.22734C20.1281 4.8222 19.2168 3.45534 17.8116 3.17436ZM7.23267 0.039209C6.14955 -0.177373 5.09592 0.525101 4.87934 1.60823L4.25401 4.73551C4.03743 5.81864 4.7399 6.87226 5.82303 7.08884L16.598 9.24341C18.5448 9.63267 20.4384 8.37012 20.8277 6.42341C21.2169 4.47671 19.9544 2.58304 18.0077 2.19378L7.23267 0.039209Z"
              fill="#417A82"/>
        <path fill-rule="evenodd" clip-rule="evenodd"
              d="M17.2944 8.71617L18.4477 2.94829L19.4283 3.14437L18.275 8.91225L17.2944 8.71617Z" fill="#417A82"/>
        <path fill-rule="evenodd" clip-rule="evenodd"
              d="M5.61807 6.9923L6.89956 0.58354L7.88015 0.779618L6.59866 7.18838L5.61807 6.9923Z" fill="#417A82"/>
        <path fill-rule="evenodd" clip-rule="evenodd"
              d="M4.80954 1.90741L4.56329 1.85817C4.02173 1.74988 3.49492 2.10112 3.38662 2.64268L3.27389 3.20646C3.1656 3.74803 3.51684 4.27484 4.0584 4.38313L4.30465 4.43237L4.80954 1.90741ZM4.75937 0.877583C3.67624 0.661002 2.62262 1.36348 2.40604 2.44661L2.2933 3.01038C2.07672 4.09351 2.7792 5.14713 3.86232 5.36371L5.08916 5.60903L5.9862 1.1229L4.75937 0.877583Z"
              fill="#417A82"/>
        <path fill-rule="evenodd" clip-rule="evenodd"
              d="M0.196078 1.96466L3.15263 2.55585L2.95655 3.53644L0 2.94525L0.196078 1.96466Z" fill="#417A82"/>
    </symbol>

    <symbol id="stock" viewBox="0 0 21.1 21.1" fill="none">
        <path fill-rule="evenodd" clip-rule="evenodd"
              d="M12.847 1.99049L10.5528 0L8.25851 1.99049L5.27638 1.4138L4.28474 4.28474L1.4138 5.27638L1.99049 8.25851L0 10.5528L1.99049 12.847L1.4138 15.8291L4.28474 16.8208L5.27638 19.6917L8.25851 19.115L10.5528 21.1055L12.847 19.115L15.8291 19.6917L16.8208 16.8208L19.6917 15.8291L19.115 12.847L21.1055 10.5528L19.115 8.25851L19.6917 5.27638L16.8208 4.28474L15.8291 1.4138L12.847 1.99049ZM15.1672 2.56034L12.5592 3.06467L10.5528 1.3239L8.54634 3.06467L5.93833 2.56034L5.0711 5.0711L2.56034 5.93833L3.06467 8.54634L1.3239 10.5528L3.06467 12.5592L2.56034 15.1672L5.0711 16.0344L5.93833 18.5452L8.54634 18.0409L10.5528 19.7816L12.5592 18.0409L15.1672 18.5452L16.0344 16.0344L18.5452 15.1672L18.0409 12.5592L19.7816 10.5528L18.0409 8.54634L18.5452 5.93833L16.0344 5.0711L15.1672 2.56034Z"
              fill="#417A82"/>
        <path fill-rule="evenodd" clip-rule="evenodd"
              d="M10.5527 15.583C13.3308 15.583 15.5829 13.3309 15.5829 10.5529C15.5829 7.77478 13.3308 5.52271 10.5527 5.52271C7.77466 5.52271 5.52258 7.77478 5.52258 10.5529C5.52258 13.3309 7.77466 15.583 10.5527 15.583ZM10.5527 16.583C13.8831 16.583 16.5829 13.8832 16.5829 10.5529C16.5829 7.2225 13.8831 4.52271 10.5527 4.52271C7.22237 4.52271 4.52258 7.2225 4.52258 10.5529C4.52258 13.8832 7.22237 16.583 10.5527 16.583Z"
              fill="#417A82"/>
    </symbol>

    <symbol id="calculator" viewBox="0 0 23 23" fill="none">
        <path fill-rule="evenodd" clip-rule="evenodd"
              d="M19 1H4C2.34315 1 1 2.34315 1 4V19C1 20.6569 2.34315 22 4 22H19C20.6569 22 22 20.6569 22 19V4C22 2.34315 20.6569 1 19 1ZM4 0C1.79086 0 0 1.79086 0 4V19C0 21.2091 1.79086 23 4 23H19C21.2091 23 23 21.2091 23 19V4C23 1.79086 21.2091 0 19 0H4Z"
              fill="#B84C74"/>
        <path fill-rule="evenodd" clip-rule="evenodd" d="M18.1031 14.863H13.0176V13.863H18.1031V14.863Z"
              fill="#B84C74"/>
        <path fill-rule="evenodd" clip-rule="evenodd" d="M18.1031 7.74341H13.0176V6.74341H18.1031V7.74341Z"
              fill="#B84C74"/>
        <path fill-rule="evenodd" clip-rule="evenodd"
              d="M9.34114 17.8708L4.52733 13.057L5.23444 12.3499L10.0483 17.1637L9.34114 17.8708Z" fill="#B84C74"/>
        <path fill-rule="evenodd" clip-rule="evenodd"
              d="M9.96641 7.74341L4.88086 7.74341L4.88086 6.74341L9.96641 6.74341L9.96641 7.74341Z" fill="#B84C74"/>
        <path fill-rule="evenodd" clip-rule="evenodd" d="M7.93213 4.69179V9.77734H6.93213V4.69179H7.93213Z"
              fill="#B84C74"/>
        <path fill-rule="evenodd" clip-rule="evenodd"
              d="M10.0483 13.057L5.23439 17.8709L4.52728 17.1638L9.34119 12.3499L10.0483 13.057Z" fill="#B84C74"/>
        <path fill-rule="evenodd" clip-rule="evenodd" d="M18.1031 16.8972H13.0176V15.8972H18.1031V16.8972Z"
              fill="#B84C74"/>
    </symbol>
</svg>