<svg width="1237" height="272" viewBox="0 0 1237 272" fill="none" xmlns="http://www.w3.org/2000/svg">
    <path opacity="0.05" d="M180.6 183.9C181.2 183.9 181.5 184.5 181.5 185.7C181.5 186.9 181.2 187.5 180.6 187.5C174.6 187.5 169.9 187.4 166.5 187.2L148.8 186.9L128.7 187.2C125.7 187.4 121.5 187.5 116.1 187.5C115.3 187.5 114.9 186.9 114.9 185.7C114.9 184.5 115.3 183.9 116.1 183.9C123.1 183.9 128.3 183.4 131.7 182.4C135.3 181.2 137.9 179.2 139.5 176.4C141.1 173.4 142.4 168.9 143.4 162.9L167.7 24.9C168.7 19.3 169.2 15.5 169.2 13.5C169.2 11.3 168.6 9.79999 167.4 8.99999C166.4 7.99999 164.3 7.39999 161.1 7.2C158.1 6.99999 154.3 6.89998 149.7 6.89998H96.3C88.3 6.89998 82.8 7.29998 79.8 8.09999C77 8.69999 75 10.2 73.8 12.6C72.8 14.8 71.7 19.3 70.5 26.1L46.2 163.8C45.4 169 45 172.1 45 173.1C45 177.5 46.4 180.4 49.2 181.8C52.2 183.2 57.7 183.9 65.7 183.9C66.7 183.9 67.2 184.5 67.2 185.7C67.2 186.9 66.7 187.5 65.7 187.5C60.1 187.5 55.7 187.4 52.5 187.2L33.3 186.9L14.4 187.2C11 187.4 6.60001 187.5 1.20001 187.5C0.400006 187.5 6.21751e-06 186.9 6.21751e-06 185.7C6.21751e-06 184.5 0.400006 183.9 1.20001 183.9C8.20001 183.9 13.4 183.4 16.8 182.4C20.4 181.2 23 179.2 24.6 176.4C26.4 173.4 27.8 168.9 28.8 162.9L52.8 27.3C53.6 22.1 54 18.7 54 17.1C54 12.3 52.5 8.89999 49.5 6.89998C46.7 4.69999 41.5 3.59999 33.9 3.59999C33.3 3.59999 33 2.99999 33 1.79999C33 0.599998 33.3 0 33.9 0C39.9 0 45.7 0.0999987 51.3 0.299996C74.5 0.699991 98.5 0.899988 123.3 0.899988C147.1 0.899988 174 0.599992 204 0H212.7C213.5 0 213.9 0.599998 213.9 1.79999C213.9 2.99999 213.5 3.59999 212.7 3.59999C203.1 3.59999 196.4 5.49999 192.6 9.29999C188.8 12.9 186.2 19.2 184.8 28.2L160.8 163.8C160.2 167.4 159.9 170.4 159.9 172.8C159.9 177.4 161.3 180.4 164.1 181.8C167.1 183.2 172.6 183.9 180.6 183.9ZM240.757 191.7C228.957 191.7 219.657 187.5 212.857 179.1C206.257 170.7 202.957 159.7 202.957 146.1C202.957 139.9 203.457 134.4 204.457 129.6C206.657 118 210.857 107.5 217.057 98.1C223.257 88.7 230.757 81.3 239.557 75.9C248.357 70.5 257.657 67.8 267.457 67.8C279.857 67.8 289.457 72 296.257 80.4C303.057 88.6 306.457 99.3 306.457 112.5C306.457 118.1 305.857 123.8 304.657 129.6C302.257 141.8 297.757 152.7 291.157 162.3C284.557 171.7 276.757 179 267.757 184.2C258.957 189.2 249.957 191.7 240.757 191.7ZM251.257 184.2C259.657 184.2 267.257 180.5 274.057 173.1C280.857 165.7 285.457 155.6 287.857 142.8C288.857 136.4 289.357 130.6 289.357 125.4C289.357 111.6 286.657 99.8 281.257 90C276.057 80 268.557 75 258.757 75C250.157 75 242.457 78.8 235.657 86.4C228.857 93.8 224.157 103.9 221.557 116.7C220.357 122.7 219.757 128.8 219.757 135C219.757 148.4 222.557 160 228.157 169.8C233.757 179.4 241.457 184.2 251.257 184.2ZM437.388 164.4C437.788 164 438.088 163.8 438.288 163.8C438.888 163.8 439.388 164.2 439.788 165C440.388 165.6 440.388 166.2 439.788 166.8C432.988 174.8 426.888 180.7 421.488 184.5C416.288 188.3 411.188 190.2 406.188 190.2C402.588 190.2 399.888 189.2 398.088 187.2C396.488 185 395.688 181.5 395.688 176.7C395.688 172.7 396.288 167.4 397.488 160.8L406.188 113.1C407.388 106.7 407.988 101.3 407.988 96.9C407.988 85.3 403.688 79.5 395.088 79.5C388.488 79.5 381.588 83.7 374.388 92.1C367.388 100.5 360.788 112.8 354.588 129C348.388 145 343.388 163.8 339.588 185.4C339.188 186.8 338.088 187.9 336.288 188.7C334.688 189.5 332.488 189.9 329.688 189.9C326.888 189.9 324.988 189.7 323.988 189.3C323.188 189.1 322.788 188.7 322.788 188.1L323.988 181.2C325.188 176.4 326.288 171.1 327.288 165.3L339.588 98.4C340.188 95.4 340.488 92.7 340.488 90.3C340.488 83.9 338.488 80.7 334.488 80.7C332.088 80.7 328.988 81.9 325.188 84.3C321.588 86.7 317.788 90.1 313.788 94.5C313.588 94.7 313.288 94.8 312.888 94.8C312.288 94.8 311.688 94.5 311.088 93.9C310.688 93.1 310.788 92.5 311.388 92.1C318.188 84.3 324.388 78.5 329.988 74.7C335.788 70.9 341.288 69 346.488 69C349.888 69 352.388 70.1 353.988 72.3C355.588 74.3 356.388 77.6 356.388 82.2C356.388 87.4 355.888 92.6 354.888 97.8L348.588 134.1C355.788 113.3 364.288 97.1 374.088 85.5C383.888 73.7 394.188 67.8 404.988 67.8C411.588 67.8 416.488 69.6 419.688 73.2C422.888 76.8 424.488 82.5 424.488 90.3C424.488 95.1 423.888 100.8 422.688 107.4L412.788 160.8C412.188 163.8 411.888 166.5 411.888 168.9C411.888 175.1 413.888 178.2 417.888 178.2C422.088 178.2 428.588 173.6 437.388 164.4ZM542.426 68.7C550.026 68.7 553.826 74.2 553.826 85.2C553.826 101.6 546.026 125 530.426 155.4C515.026 185.6 497.226 212.5 477.026 236.1C456.826 259.9 440.026 271.8 426.626 271.8C422.626 271.8 419.526 270.8 417.326 268.8C414.926 266.8 414.026 263.6 414.626 259.2C415.826 253.8 419.826 251.1 426.626 251.1C435.226 251.1 442.126 250.7 447.326 249.9C452.726 249.3 457.726 247.3 462.326 243.9C468.526 239.7 476.626 230.6 486.626 216.6L486.926 201.3C486.926 163.7 483.826 134.5 477.626 113.7C471.626 92.7 463.326 82.2 452.726 82.2C446.526 82.2 441.526 85.9 437.726 93.3C437.526 93.9 436.926 94.2 435.926 94.2C434.526 94.2 433.926 93.6 434.126 92.4C441.726 76.8 451.026 69 462.026 69C470.426 69 477.626 73.8 483.626 83.4C489.626 93 494.226 106.1 497.426 122.7C500.626 139.3 502.226 157.9 502.226 178.5C502.226 185.5 502.126 190.8 501.926 194.4C510.526 181 518.126 167.8 524.726 154.8C531.326 141.8 535.526 131.6 537.326 124.2C538.326 120.4 538.826 116.2 538.826 111.6C538.826 104.8 537.226 96.8 534.026 87.6C532.426 83.8 531.626 80.8 531.626 78.6C531.626 75.8 532.626 73.5 534.626 71.7C536.626 69.7 539.226 68.7 542.426 68.7ZM552.387 190.2C549.187 190.2 546.587 189.5 544.587 188.1C542.587 186.7 541.587 184.7 541.587 182.1C541.587 177.9 542.887 175.1 545.487 173.7C548.087 172.3 551.587 171.6 555.987 171.6C561.787 171.6 566.687 169.6 570.687 165.6C574.887 161.6 578.387 156.7 581.187 150.9C583.987 144.9 587.187 136.8 590.787 126.6C595.387 113.8 599.587 103.7 603.387 96.3C607.187 88.7 612.287 82.2 618.687 76.8C625.087 71.4 632.987 68.7 642.387 68.7C652.787 68.7 657.987 74.2 657.987 85.2C657.987 87.8 657.687 90.8 657.087 94.2L645.087 160.8C644.487 163.8 644.187 166.5 644.187 168.9C644.187 175.1 646.187 178.2 650.187 178.2C652.387 178.2 655.287 177.1 658.887 174.9C662.487 172.5 666.287 169.2 670.287 165C670.687 164.6 671.087 164.4 671.487 164.4C672.087 164.4 672.587 164.8 672.987 165.6C673.387 166.2 673.387 166.8 672.987 167.4C666.187 175.2 659.987 181 654.387 184.8C648.987 188.4 643.687 190.2 638.487 190.2C634.887 190.2 632.187 189.1 630.387 186.9C628.787 184.7 627.987 181.1 627.987 176.1C627.987 172.5 628.487 167.4 629.487 160.8L640.587 98.1C640.987 96.3 641.187 94 641.187 91.2C641.187 84.6 638.887 81.3 634.287 81.3C627.887 81.3 622.187 83.8 617.187 88.8C612.387 93.6 608.287 99.7 604.887 107.1C601.687 114.3 597.887 123.8 593.487 135.6C588.887 147.8 584.887 157.5 581.487 164.7C578.287 171.9 574.187 178 569.187 183C564.387 187.8 558.787 190.2 552.387 190.2ZM783.173 164.7C783.373 164.5 783.673 164.4 784.073 164.4C784.673 164.4 785.173 164.8 785.573 165.6C785.973 166.2 785.973 166.7 785.573 167.1C778.573 175.1 772.273 181 766.673 184.8C761.073 188.4 755.773 190.2 750.773 190.2C747.173 190.2 744.473 189.2 742.673 187.2C741.073 185 740.273 181.5 740.273 176.7C740.273 172.7 740.873 167.6 742.073 161.4L748.073 130.2C740.273 130.6 734.173 131.8 729.773 133.8C725.573 135.8 721.973 139 718.973 143.4C715.973 147.6 712.273 154.5 707.873 164.1C704.273 172.5 700.573 179 696.773 183.6C693.173 188 687.973 190.2 681.173 190.2C677.373 190.2 671.773 189.4 664.373 187.8C663.973 187.8 663.773 187.5 663.773 186.9C663.773 186.3 663.973 185.8 664.373 185.4C664.773 184.8 665.173 184.6 665.573 184.8C666.373 185 667.673 185.1 669.473 185.1C674.873 185.1 679.273 182.8 682.673 178.2C686.273 173.4 689.973 166.5 693.773 157.5C701.173 141.9 712.473 132.9 727.673 130.5C717.073 129.3 708.873 126.4 703.073 121.8C697.273 117.2 694.373 111.4 694.373 104.4C694.373 103.4 694.573 101.7 694.973 99.3C696.773 89.1 703.173 81.5 714.173 76.5C725.173 71.3 739.073 68.7 755.873 68.7C761.473 68.7 765.473 68.9 767.873 69.3C770.273 69.5 771.773 70.1 772.373 71.1C773.173 71.9 773.373 73.2 772.973 75L757.373 160.8C756.773 163.8 756.473 166.5 756.473 168.9C756.473 175.3 758.473 178.5 762.473 178.5C764.673 178.5 767.573 177.3 771.173 174.9C774.973 172.5 778.973 169.1 783.173 164.7ZM754.973 93.9C756.373 85.9 757.073 81 757.073 79.2C757.073 76.6 756.473 75 755.273 74.4C754.273 73.6 752.373 73.2 749.573 73.2C736.773 73.2 727.173 75.9 720.773 81.3C714.573 86.5 711.473 93 711.473 100.8C711.473 107.6 713.773 113.7 718.373 119.1C723.173 124.3 730.373 126.9 739.973 126.9C742.773 126.9 745.673 126.6 748.673 126L754.973 93.9ZM867.284 69.6C876.884 69.6 884.184 72.3 889.184 77.7C894.184 82.9 896.684 90.6 896.684 100.8C896.684 104 896.384 107.6 895.784 111.6C893.984 125 889.484 137.6 882.284 149.4C875.084 161 866.384 170.3 856.184 177.3C845.984 184.3 835.684 187.8 825.284 187.8C818.084 187.8 812.384 187.5 808.184 186.9L798.584 240.9C797.984 244.3 797.684 247.1 797.684 249.3C797.684 252.9 798.484 255.5 800.084 257.1C801.884 258.7 804.684 259.5 808.484 259.5C809.684 259.5 812.084 259.3 815.684 258.9H815.984C816.584 258.9 816.984 259.4 817.184 260.4C817.384 261.4 817.084 262 816.284 262.2L764.684 270C763.884 270.2 763.384 269.7 763.184 268.5C762.984 267.3 763.284 266.6 764.084 266.4C768.484 265.6 771.784 264.5 773.984 263.1C776.184 261.9 777.884 259.8 779.084 256.8C780.084 254 781.184 249.4 782.384 243L807.884 100.5L794.384 110.7L793.784 111C793.184 111 792.584 110.6 791.984 109.8C791.584 108.8 791.584 108.2 791.984 108C798.384 102.2 804.084 97.6 809.084 94.2L812.984 71.7C812.984 71.3 814.384 69.9 817.184 67.5C819.984 64.9 822.484 62.2 824.684 59.4C826.884 56.6 828.384 53.4 829.184 49.8C829.184 49.2 829.684 48.9 830.684 48.9C831.084 48.9 831.484 49.1 831.884 49.5C832.484 49.7 832.684 50 832.484 50.4L826.784 82.2C841.384 73.8 854.884 69.6 867.284 69.6ZM878.684 121.5C879.284 117.3 879.584 113.2 879.584 109.2C879.584 90 871.284 80.4 854.684 80.4C845.684 80.4 835.984 83.3 825.584 89.1L810.284 174.3C817.484 177.7 825.284 179.4 833.684 179.4C846.284 179.4 856.384 174.1 863.984 163.5C871.584 152.9 876.484 138.9 878.684 121.5ZM1028.15 164.4C1028.55 164 1028.95 163.8 1029.35 163.8C1029.95 163.8 1030.45 164.2 1030.85 165C1031.25 165.6 1031.15 166.2 1030.55 166.8C1023.75 174.8 1017.55 180.7 1011.95 184.5C1006.35 188.1 1000.95 189.9 995.752 189.9C992.152 189.9 989.552 188.9 987.952 186.9C986.352 184.9 985.552 181.6 985.552 177C985.552 172.8 986.152 167.6 987.352 161.4L992.452 132.6H938.752L929.452 185.4C929.052 186.8 927.952 187.9 926.152 188.7C924.552 189.5 922.352 189.9 919.552 189.9C916.752 189.9 914.852 189.7 913.852 189.3C913.052 189.1 912.652 188.7 912.652 188.1L913.852 181.2C915.052 176.4 916.152 171.1 917.152 165.3L929.452 98.4C930.052 95.4 930.352 92.7 930.352 90.3C930.352 83.9 928.352 80.7 924.352 80.7C921.952 80.7 918.852 81.9 915.052 84.3C911.452 86.7 907.652 90.1 903.652 94.5C903.452 94.7 903.152 94.8 902.752 94.8C902.152 94.8 901.552 94.5 900.952 93.9C900.552 93.1 900.652 92.5 901.252 92.1C908.052 84.3 914.252 78.5 919.852 74.7C925.652 70.9 931.152 69 936.352 69C939.752 69 942.252 70.1 943.852 72.3C945.452 74.3 946.252 77.6 946.252 82.2C946.252 87.4 945.752 92.6 944.752 97.8L939.652 126.6H993.652L1002.95 73.5C1003.15 72.3 1004.05 71.3 1005.65 70.5C1007.25 69.5 1009.45 69 1012.25 69C1016.85 69 1019.15 69.7 1019.15 71.1C1018.95 72.3 1018.35 75.3 1017.35 80.1C1016.35 84.9 1015.45 89.4 1014.65 93.6L1002.35 160.5C1001.95 164.5 1001.75 167.1 1001.75 168.3C1001.75 174.9 1003.75 178.2 1007.75 178.2C1009.95 178.2 1012.85 177 1016.45 174.6C1020.25 172.2 1024.15 168.8 1028.15 164.4ZM1073.07 191.7C1061.27 191.7 1051.97 187.5 1045.17 179.1C1038.57 170.7 1035.27 159.7 1035.27 146.1C1035.27 139.9 1035.77 134.4 1036.77 129.6C1038.97 118 1043.17 107.5 1049.37 98.1C1055.57 88.7 1063.07 81.3 1071.87 75.9C1080.67 70.5 1089.97 67.8 1099.77 67.8C1112.17 67.8 1121.77 72 1128.57 80.4C1135.37 88.6 1138.77 99.3 1138.77 112.5C1138.77 118.1 1138.17 123.8 1136.97 129.6C1134.57 141.8 1130.07 152.7 1123.47 162.3C1116.87 171.7 1109.07 179 1100.07 184.2C1091.27 189.2 1082.27 191.7 1073.07 191.7ZM1083.57 184.2C1091.97 184.2 1099.57 180.5 1106.37 173.1C1113.17 165.7 1117.77 155.6 1120.17 142.8C1121.17 136.4 1121.67 130.6 1121.67 125.4C1121.67 111.6 1118.97 99.8 1113.57 90C1108.37 80 1100.87 75 1091.07 75C1082.47 75 1074.77 78.8 1067.97 86.4C1061.17 93.8 1056.47 103.9 1053.87 116.7C1052.67 122.7 1052.07 128.8 1052.07 135C1052.07 148.4 1054.87 160 1060.47 169.8C1066.07 179.4 1073.77 184.2 1083.57 184.2ZM1236.1 81.3C1236.1 87.5 1232.8 93.5 1226.2 99.3C1219.8 104.9 1211.1 109.8 1200.1 114C1189.3 118.2 1177.6 121.3 1165 123.3C1164 129.7 1163.5 135.2 1163.5 139.8C1163.5 152.2 1166.3 162.2 1171.9 169.8C1177.5 177.2 1185.4 180.9 1195.6 180.9C1206.8 180.9 1216.8 177.6 1225.6 171H1226.2C1226.8 171 1227.3 171.3 1227.7 171.9C1228.3 172.5 1228.3 173.1 1227.7 173.7C1213.7 185.3 1199.1 191.1 1183.9 191.1C1171.3 191.1 1161.7 187.1 1155.1 179.1C1148.7 170.9 1145.5 160.4 1145.5 147.6C1145.5 143.2 1146 138 1147 132C1148.8 121.8 1153 111.8 1159.6 102C1166.2 92 1174.4 83.8 1184.2 77.4C1194.2 71 1204.6 67.8 1215.4 67.8C1222 67.8 1227.1 69 1230.7 71.4C1234.3 73.8 1236.1 77.1 1236.1 81.3ZM1202.2 75.9C1193 75.9 1185.2 80 1178.8 88.2C1172.6 96.2 1168.3 106.5 1165.9 119.1C1179.9 116.7 1191.2 113.1 1199.8 108.3C1208.6 103.5 1213.9 97.5 1215.7 90.3C1216.1 88.3 1216.3 86.9 1216.3 86.1C1216.3 82.7 1214.9 80.2 1212.1 78.6C1209.3 76.8 1206 75.9 1202.2 75.9Z" fill="white"/>
</svg>